<svg width="18" height="16" viewBox="0 0 18 16" fill="none" xmlns="http://www.w3.org/2000/svg">
<path fill-rule="evenodd" clip-rule="evenodd" d="M6.49902 0C2.90971 0 0 2.90971 0 6.49902C0 10.0883 2.90971 12.998 6.49902 12.998H10.9457C11.0386 12.998 11.1311 12.9961 11.223 12.9922C11.9348 14.7743 13.4195 16 15.1359 16C15.3067 16 15.4752 15.9879 15.6408 15.9642C14.9634 14.851 14.4241 13.5828 14.0577 12.2059C16.0758 11.1031 17.4447 8.96092 17.4447 6.49902C17.4447 2.90971 14.535 0 10.9457 0H6.49902Z" fill="#2BFFBF"/>
<circle cx="4.44589" cy="6.81705" r="1.48197" fill="white"/>
<circle cx="8.5954" cy="6.81705" r="1.48197" fill="white"/>
<circle cx="12.7449" cy="6.81705" r="1.48197" fill="white"/>
</svg>
