<svg xmlns="http://www.w3.org/2000/svg" width="17" height="15" fill="none" viewBox="0 0 17 15"><path fill="#42A788" fill-rule="evenodd" d="M5.94616 0.495956C2.80552 0.495956 0.259521 3.04195 0.259521 6.1826C0.259521 9.01355 2.32816 11.3613 5.03629 11.7968V9.61301L2.34494 6.44508L3.88685 3.97801H15.0805C14.2194 1.93225 12.1959 0.495956 9.83701 0.495956H5.94616Z" clip-rule="evenodd"/><path fill="#2BFFBF" fill-rule="evenodd" d="M0.926208 6.64569C0.926208 3.50504 3.47221 0.959045 6.61285 0.959045H10.5037C13.6443 0.959045 16.1903 3.50504 16.1903 6.64569C16.1903 8.79985 14.9926 10.6743 13.2267 11.6392C13.5473 12.844 14.0192 13.9537 14.6119 14.9277C14.467 14.9484 14.3195 14.959 14.1701 14.959C12.6683 14.959 11.3691 13.8865 10.7464 12.3272C10.6659 12.3306 10.585 12.3323 10.5037 12.3323H6.61285C3.47221 12.3323 0.926208 9.78633 0.926208 6.64569ZM5.24579 7.94241C5.96194 7.94241 6.54251 7.36185 6.54251 6.64569C6.54251 5.92953 5.96194 5.34897 5.24579 5.34897C4.52963 5.34897 3.94907 5.92953 3.94907 6.64569C3.94907 7.36185 4.52963 7.94241 5.24579 7.94241ZM9.86166 6.64569C9.86166 7.36185 9.2811 7.94241 8.56494 7.94241C7.84878 7.94241 7.26822 7.36185 7.26822 6.64569C7.26822 5.92953 7.84878 5.34897 8.56494 5.34897C9.2811 5.34897 9.86166 5.92953 9.86166 6.64569ZM11.8841 7.94241C12.6003 7.94241 13.1808 7.36185 13.1808 6.64569C13.1808 5.92953 12.6003 5.34897 11.8841 5.34897C11.168 5.34897 10.5874 5.92953 10.5874 6.64569C10.5874 7.36185 11.168 7.94241 11.8841 7.94241Z" clip-rule="evenodd"/><path fill="#42A788" fill-rule="evenodd" d="M11.8764 7.93557C12.5926 7.93557 13.1732 7.35501 13.1732 6.63885C13.1732 6.09947 12.8438 5.637 12.3753 5.44156C13.0622 5.57882 13.5797 6.18519 13.5797 6.91245C13.5797 7.74087 12.9081 8.41245 12.0797 8.41245C11.2513 8.41245 10.5797 7.74087 10.5797 6.91245C10.5797 6.86463 10.5819 6.81733 10.5863 6.77065C10.6524 7.4249 11.2048 7.93557 11.8764 7.93557Z" clip-rule="evenodd"/><path fill="#42A788" fill-rule="evenodd" d="M8.56799 7.93557C9.28415 7.93557 9.86471 7.35501 9.86471 6.63885C9.86471 6.09947 9.53538 5.637 9.06683 5.44156C9.75371 5.57882 10.2713 6.18519 10.2713 6.91245C10.2713 7.74087 9.5997 8.41245 8.77127 8.41245C7.94284 8.41245 7.27127 7.74087 7.27127 6.91245C7.27127 6.86463 7.27351 6.81733 7.27789 6.77065C7.34393 7.4249 7.89632 7.93557 8.56799 7.93557Z" clip-rule="evenodd"/><path fill="#42A788" fill-rule="evenodd" d="M5.25998 7.93557C5.97614 7.93557 6.5567 7.35501 6.5567 6.63885C6.5567 6.09947 6.22737 5.637 5.75882 5.44156C6.4457 5.57882 6.96326 6.18519 6.96326 6.91245C6.96326 7.74087 6.29168 8.41245 5.46326 8.41245C4.63483 8.41245 3.96326 7.74087 3.96326 6.91245C3.96326 6.86463 3.96549 6.81733 3.96987 6.77065C4.03591 7.4249 4.58831 7.93557 5.25998 7.93557Z" clip-rule="evenodd"/></svg>