<svg width="17" height="15" viewBox="0 0 17 15" fill="none" xmlns="http://www.w3.org/2000/svg">
<path fill-rule="evenodd" clip-rule="evenodd" d="M6.61309 0.959137C3.47245 0.959137 0.926453 3.50513 0.926453 6.64578C0.926453 9.78642 3.47245 12.3324 6.6131 12.3324H10.5039C10.5853 12.3324 10.6662 12.3307 10.7466 12.3273C11.3694 13.8866 12.6685 14.9591 14.1703 14.9591C14.3198 14.9591 14.4672 14.9485 14.6122 14.9278C14.0194 13.9538 13.5475 12.8441 13.2269 11.6393C14.9928 10.6743 16.1906 8.79994 16.1906 6.64578C16.1906 3.50513 13.6446 0.959137 10.5039 0.959137H6.61309Z" fill="#2BFFBF"/>
<circle cx="4.60754" cy="6.75854" r="1.5" fill="#42A788"/>
<circle cx="4.40426" cy="6.48495" r="1.29672" fill="white"/>
<circle cx="8.55853" cy="6.75854" r="1.5" fill="#42A788"/>
<circle cx="8.35525" cy="6.48495" r="1.29672" fill="white"/>
<circle cx="12.5095" cy="6.75854" r="1.5" fill="#42A788"/>
<circle cx="12.3062" cy="6.48495" r="1.29672" fill="white"/>
</svg>
