<svg width="16" height="14" viewBox="0 0 16 14" fill="none" xmlns="http://www.w3.org/2000/svg">
<path fill-rule="evenodd" clip-rule="evenodd" d="M5.68664 0C2.546 0 0 2.54599 0 5.68664C0 8.82728 2.546 11.3733 5.68664 11.3733H9.57749C9.6588 11.3733 9.73971 11.3716 9.82018 11.3682C10.4429 12.9275 11.7421 14 13.2439 14C13.3933 14 13.5408 13.9894 13.6857 13.9687C13.0929 12.9946 12.6211 11.885 12.3005 10.6802C14.0664 9.71521 15.2641 7.8408 15.2641 5.68664C15.2641 2.54599 12.7181 0 9.57749 0H5.68664Z" fill="#2BFFBF"/>
<circle cx="3.89016" cy="5.96493" r="1.29672" fill="white"/>
<circle cx="7.52096" cy="5.96493" r="1.29672" fill="white"/>
<circle cx="11.1518" cy="5.96493" r="1.29672" fill="white"/>
</svg>
