<svg xmlns="http://www.w3.org/2000/svg" width="15" height="14" fill="none" viewBox="0 0 15 14"><path fill="#007ACC" fill-rule="evenodd" d="M2.22041 6.34344C0.994113 5.29265 0.851826 3.44671 1.90261 2.22042C2.95339 0.994117 4.79933 0.851832 6.02563 1.90261L8.77086 4.25493C9.99716 5.30571 10.1394 7.15165 9.08866 8.37795C9.03036 8.44599 8.96961 8.51069 8.90666 8.57204L7.68839 7.52813C7.75534 7.47156 7.81865 7.40888 7.87752 7.34017C8.46978 6.64898 8.38958 5.60854 7.6984 5.01629L5.43762 3.07909C4.74643 2.48683 3.70599 2.56703 3.11373 3.25821C2.52148 3.9494 2.60167 4.98984 3.29286 5.5821L4.53719 6.64833L4.073 7.93086L2.22041 6.34344Z" clip-rule="evenodd"/><path fill="#007ACC" fill-rule="evenodd" d="M12.5773 7.65656C13.8036 8.70735 13.9459 10.5533 12.8951 11.7796C11.8443 13.0059 9.9984 13.1482 8.7721 12.0974L6.02687 9.74507C4.80057 8.69429 4.65828 6.84835 5.70907 5.62205C5.76736 5.55402 5.82811 5.48932 5.89106 5.42798L7.10933 6.47188C7.04237 6.52846 6.97905 6.59114 6.92017 6.65986C6.32791 7.35104 6.40811 8.39148 7.0993 8.98374L9.36008 10.9209C10.0513 11.5132 11.0917 11.433 11.684 10.7418C12.2762 10.0506 12.196 9.01019 11.5048 8.41793L10.2605 7.35169L10.7247 6.06912L12.5773 7.65656Z" clip-rule="evenodd"/></svg>