<svg width="17" height="16" viewBox="0 0 17 16" fill="none" xmlns="http://www.w3.org/2000/svg">
<path fill-rule="evenodd" clip-rule="evenodd" d="M2.53761 7.24963C1.13612 6.04874 0.973517 3.9391 2.17441 2.53761C3.3753 1.13613 5.48495 0.973518 6.88643 2.17441L10.0238 4.86277C11.4253 6.06367 11.5879 8.17331 10.387 9.57479C10.3204 9.65255 10.251 9.7265 10.179 9.79661L8.78674 8.60359C8.86325 8.53893 8.93561 8.4673 9.00289 8.38877C9.67976 7.59885 9.58811 6.40977 8.79818 5.73291L6.21443 3.51896C5.4245 2.8421 4.23543 2.93375 3.55856 3.72368C2.8817 4.51361 2.97335 5.70268 3.76328 6.37954L5.18537 7.59809L4.65486 9.06385L2.53761 7.24963Z" fill="#007ACC"/>
<path fill-rule="evenodd" clip-rule="evenodd" d="M14.3741 8.75037C15.7756 9.95126 15.9382 12.0609 14.7373 13.4624C13.5364 14.8639 11.4267 15.0265 10.0253 13.8256L6.88784 11.1372C5.48635 9.93633 5.32375 7.82669 6.52464 6.42521C6.59127 6.34745 6.66069 6.27351 6.73264 6.2034L8.12495 7.39644C8.04843 7.4611 7.97607 7.53273 7.90878 7.61126C7.23191 8.40119 7.32356 9.59026 8.11349 10.2671L10.6972 12.4811C11.4872 13.1579 12.6762 13.0663 13.3531 12.2764C14.03 11.4864 13.9383 10.2974 13.1484 9.62049L11.7263 8.40193L12.2568 6.93615L14.3741 8.75037Z" fill="#007ACC"/>
</svg>
