<svg xmlns="http://www.w3.org/2000/svg" width="17" height="15" fill="none" viewBox="0 0 17 15"><path fill="#32C9D2" d="M6.87737 7.38725C6.87737 7.75777 7.02169 8.11312 7.27859 8.37513C7.53549 8.63713 7.88392 8.78432 8.24723 8.78432C8.61054 8.78432 8.95897 8.63713 9.21587 8.37513C9.47277 8.11312 9.6171 7.75777 9.6171 7.38725C9.6171 7.01672 9.47277 6.66137 9.21587 6.39937C8.95897 6.13736 8.61054 5.99017 8.24723 5.99017C7.88392 5.99017 7.53549 6.13736 7.27859 6.39937C7.02169 6.66137 6.87737 7.01672 6.87737 7.38725V7.38725Z"/><path fill="#32C9D2" fill-rule="evenodd" d="M11.0921 8.93138C11.6081 8.0385 12.0458 7.11385 12.3803 6.21022C12.7148 5.30659 12.9395 4.44169 13.0416 3.66488C13.1437 2.88808 13.1211 2.2146 12.9752 1.68289C12.8293 1.15118 12.563 0.771657 12.1913 0.565992C11.4408 0.15062 10.3071 0.468556 9.03951 1.44986C7.77197 2.43116 6.47444 3.99546 5.43236 5.79862C4.91636 6.6915 4.47861 7.61615 4.14411 8.51978C3.8096 9.42341 3.5849 10.2883 3.48282 11.0651C3.38075 11.8419 3.4033 12.5154 3.54919 13.0471C3.69509 13.5788 3.96146 13.9583 4.33311 14.164C5.08364 14.5794 6.21738 14.2614 7.48492 13.2801C8.75247 12.2988 10.05 10.7345 11.0921 8.93138V8.93138ZM10.4784 8.60856C10.9495 7.79336 11.3584 6.95448 11.6817 6.13981C12.0051 5.32513 12.2365 4.55063 12.3628 3.86051C12.4891 3.17039 12.5078 2.57818 12.4179 2.11768C12.328 1.65718 12.1312 1.33742 11.8387 1.17665C11.5462 1.0158 11.1639 1.0171 10.7134 1.18048C10.2629 1.34385 9.75314 1.6661 9.21321 2.12882C8.67328 2.59154 8.11374 3.18567 7.56656 3.87728C7.01938 4.5689 6.49527 5.34445 6.02414 6.15967C5.55304 6.97487 5.14416 7.81375 4.82084 8.62842C4.49752 9.44309 4.26611 10.2176 4.1398 10.9077C4.01349 11.5978 3.99476 12.1901 4.08469 12.6505C4.17462 13.111 4.37144 13.4308 4.66391 13.5916C4.95635 13.7524 5.33873 13.7511 5.78921 13.5878C6.23969 13.4244 6.74945 13.1021 7.28938 12.6394C7.82932 12.1767 8.38885 11.5826 8.93603 10.8909C9.48321 10.1993 10.0073 9.42377 10.4784 8.60856V8.60856Z" clip-rule="evenodd"/><path fill="#32C9D2" fill-rule="evenodd" d="M11.0159 5.7019C10.4999 4.80903 9.91728 3.96797 9.30123 3.22676C8.68518 2.48554 8.0478 1.85868 7.42547 1.38197C6.80315 0.905252 6.20807 0.588021 5.67422 0.448385C5.14036 0.30875 4.67819 0.349445 4.31408 0.568147C3.94996 0.786821 3.69103 1.17922 3.55209 1.72293C3.41314 2.26665 3.39689 2.95103 3.50427 3.73701C3.61165 4.52299 3.84055 5.39517 4.17791 6.30376C4.51527 7.21235 4.95447 8.13954 5.47045 9.03241C5.98643 9.92528 6.56908 10.7663 7.18513 11.5076C7.80118 12.2488 8.43857 12.8756 9.06089 13.3523C9.68322 13.8291 10.2783 14.1463 10.8121 14.2859C11.346 14.4256 11.8082 14.3849 12.1723 14.1662C12.5364 13.9475 12.7953 13.5551 12.9343 13.0114C13.0732 12.4677 13.0895 11.7833 12.9821 10.9973C12.8747 10.2113 12.6458 9.33914 12.3085 8.43055C11.9711 7.52197 11.5319 6.59477 11.0159 5.7019V5.7019ZM10.4293 6.0714C9.95816 5.25619 9.43541 4.48298 8.89086 3.7959C8.34632 3.10883 7.79064 2.52135 7.25556 2.06702C6.72048 1.61268 6.21648 1.30038 5.77234 1.14795C5.32819 0.995524 4.9526 1.00595 4.66701 1.17864C4.38138 1.35126 4.19134 1.68276 4.10774 2.15421C4.02414 2.62566 4.04861 3.22782 4.17976 3.92632C4.3109 4.62482 4.54616 5.40598 4.87209 6.22519C5.19802 7.04439 5.60824 7.88561 6.07933 8.70081C6.55044 9.51602 7.07319 10.2892 7.61774 10.9763C8.16229 11.6634 8.71796 12.2509 9.25304 12.7052C9.78812 13.1595 10.2921 13.4718 10.7363 13.6243C11.1804 13.7767 11.556 13.7663 11.8416 13.5936C12.1272 13.421 12.3173 13.0895 12.4009 12.618C12.4845 12.1466 12.46 11.5444 12.3288 10.8459C12.1977 10.1474 11.9624 9.36624 11.6365 8.54703C11.3106 7.72782 10.9004 6.8866 10.4293 6.0714V6.0714Z" clip-rule="evenodd"/><path fill="#32C9D2" fill-rule="evenodd" d="M8.16613 4.1452C7.13414 4.1452 6.11373 4.22879 5.16318 4.39119C4.21262 4.55359 3.35053 4.79163 2.62613 5.09172C1.90173 5.39181 1.3292 5.74806 0.941242 6.14014C0.553282 6.53222 0.357486 6.95245 0.365034 7.37684C0.380295 8.23387 1.22281 9.0558 2.70725 9.66181C4.19168 10.2678 6.19645 10.6083 8.28055 10.6083C10.3647 10.6083 12.3574 10.2679 13.8204 9.66184C15.2834 9.05582 16.0968 8.23389 16.0816 7.37684C16.0741 6.95246 15.8635 6.53224 15.4616 6.14016C15.0597 5.74808 14.4746 5.39183 13.7396 5.09175C13.0046 4.79166 12.134 4.55362 11.1778 4.39121C10.2215 4.2288 9.19811 4.14521 8.16613 4.1452V4.1452ZM8.1931 4.83752C7.25089 4.83753 6.31926 4.90321 5.45141 5.03082C4.58355 5.15843 3.79647 5.34547 3.1351 5.58125C2.47373 5.81703 1.95102 6.09694 1.59683 6.405C1.24263 6.71306 1.06388 7.04324 1.07078 7.37668C1.0776 7.71011 1.26994 8.04029 1.63682 8.34835C2.0037 8.65641 2.53793 8.93632 3.20901 9.17211C3.88009 9.40789 4.67487 9.59493 5.54798 9.72253C6.42109 9.85014 7.35542 9.91582 8.29764 9.91583C9.23985 9.91582 10.1715 9.85014 11.0393 9.72253C11.9072 9.59492 12.6943 9.40789 13.3556 9.1721C14.017 8.93632 14.5397 8.65641 14.8939 8.34835C15.2481 8.04029 15.4269 7.71011 15.42 7.37668C15.4131 7.04324 15.2208 6.71306 14.8539 6.405C14.487 6.09694 13.9528 5.81703 13.2817 5.58124C12.6107 5.34546 11.8159 5.15843 10.9428 5.03082C10.0696 4.90321 9.13531 4.83753 8.1931 4.83752V4.83752Z" clip-rule="evenodd"/></svg>