<svg width="19" height="17" viewBox="0 0 19 17" fill="none" xmlns="http://www.w3.org/2000/svg">
<path d="M7.56246 8.39011C7.56246 8.81357 7.7274 9.21969 8.021 9.51912C8.3146 9.81855 8.7128 9.98677 9.12802 9.98677C9.54323 9.98677 9.94143 9.81855 10.235 9.51912C10.5286 9.21969 10.6936 8.81357 10.6936 8.39011C10.6936 7.96665 10.5286 7.56054 10.235 7.26111C9.94143 6.96168 9.54323 6.79346 9.12802 6.79346C8.7128 6.79346 8.3146 6.96168 8.021 7.26111C7.7274 7.56054 7.56246 7.96665 7.56246 8.39011V8.39011Z" fill="#32C9D2"/>
<path fill-rule="evenodd" clip-rule="evenodd" d="M12.3792 10.1548C12.969 9.13441 13.4692 8.07766 13.8515 7.04494C14.2338 6.01222 14.4906 5.02376 14.6073 4.13598C14.7239 3.24821 14.6982 2.47852 14.5314 1.87085C14.3647 1.26318 14.0603 0.829439 13.6355 0.594393C12.7778 0.119682 11.4821 0.483037 10.0335 1.60453C8.58484 2.72602 7.10195 4.51378 5.911 6.57454C5.32128 7.59498 4.821 8.65172 4.43871 9.68444C4.05642 10.7172 3.79962 11.7056 3.68296 12.5934C3.5663 13.4812 3.59208 14.2509 3.75881 14.8585C3.92554 15.4662 4.22997 15.8999 4.65472 16.135C5.51246 16.6097 6.80816 16.2463 8.25678 15.1249C9.70541 14.0034 11.1883 12.2156 12.3792 10.1548V10.1548ZM11.678 9.7859C12.2164 8.85424 12.6837 7.89552 13.0532 6.96447C13.4227 6.03341 13.6871 5.14826 13.8315 4.35956C13.9759 3.57085 13.9973 2.89403 13.8945 2.36775C13.7917 1.84147 13.5668 1.47602 13.2325 1.29228C12.8983 1.10846 12.4613 1.10995 11.9465 1.29666C11.4316 1.48337 10.849 1.85166 10.232 2.38048C9.6149 2.9093 8.97544 3.58831 8.35009 4.37872C7.72474 5.16914 7.12575 6.05549 6.58732 6.98716C6.04892 7.91882 5.58163 8.87754 5.21212 9.8086C4.84262 10.7397 4.57814 11.6248 4.43378 12.4135C4.28943 13.2022 4.26803 13.879 4.3708 14.4053C4.47358 14.9316 4.69852 15.297 5.03277 15.4808C5.36699 15.6646 5.80399 15.6631 6.31883 15.4764C6.83366 15.2897 7.41624 14.9214 8.03331 14.3926C8.65038 13.8638 9.28984 13.1848 9.91519 12.3943C10.5405 11.6039 11.1395 10.7176 11.678 9.7859V9.7859Z" fill="#32C9D2"/>
<path fill-rule="evenodd" clip-rule="evenodd" d="M12.2922 6.46401C11.7025 5.44358 11.0366 4.48238 10.3326 3.63527C9.62853 2.78817 8.9001 2.07176 8.18887 1.52694C7.47764 0.982123 6.79755 0.619573 6.18743 0.45999C5.57731 0.300406 5.04911 0.346915 4.63299 0.59686C4.21685 0.846773 3.92093 1.29523 3.76214 1.91662C3.60334 2.538 3.58477 3.32016 3.70749 4.21842C3.83021 5.11668 4.09181 6.11346 4.47736 7.15185C4.86291 8.19023 5.36486 9.24989 5.95455 10.2703C6.54425 11.2907 7.21014 12.2519 7.91419 13.099C8.61825 13.9461 9.34669 14.6626 10.0579 15.2074C10.7691 15.7522 11.4492 16.1147 12.0594 16.2743C12.6695 16.4339 13.1977 16.3874 13.6138 16.1375C14.0299 15.8875 14.3258 15.4391 14.4846 14.8177C14.6434 14.1963 14.662 13.4142 14.5393 12.5159C14.4166 11.6176 14.155 10.6209 13.7694 9.58247C13.3839 8.54408 12.8819 7.48443 12.2922 6.46401V6.46401ZM11.6218 6.88629C11.0834 5.95463 10.4859 5.07095 9.8636 4.28572C9.24126 3.5005 8.6062 2.82909 7.99468 2.30985C7.38316 1.79061 6.80716 1.4337 6.29957 1.25949C5.79197 1.08529 5.36272 1.09721 5.03633 1.29456C4.70991 1.49185 4.49272 1.87071 4.39717 2.4095C4.30163 2.9483 4.32959 3.63649 4.47948 4.43478C4.62936 5.23306 4.89822 6.12581 5.27071 7.06205C5.6432 7.99829 6.11202 8.95968 6.65042 9.89134C7.18883 10.823 7.78626 11.7067 8.4086 12.4919C9.03094 13.2771 9.666 13.9485 10.2775 14.4678C10.889 14.987 11.465 15.3439 11.9726 15.5181C12.4802 15.6923 12.9095 15.6804 13.2359 15.4831C13.5623 15.2858 13.7795 14.9069 13.875 14.3681C13.9706 13.8293 13.9426 13.1411 13.7927 12.3429C13.6428 11.5446 13.374 10.6518 13.0015 9.71558C12.629 8.77934 12.1602 7.81795 11.6218 6.88629V6.88629Z" fill="#32C9D2"/>
<path fill-rule="evenodd" clip-rule="evenodd" d="M9.03531 4.68492C7.85589 4.68492 6.68972 4.78044 5.60337 4.96605C4.51702 5.15165 3.53177 5.4237 2.70389 5.76666C1.876 6.10961 1.22168 6.51676 0.778298 6.96485C0.334916 7.41295 0.11115 7.89321 0.119776 8.37822C0.137217 9.35769 1.10009 10.297 2.79659 10.9896C4.49309 11.6822 6.78425 12.0713 9.16607 12.0713C11.5479 12.0713 13.8253 11.6822 15.4973 10.9896C17.1693 10.2971 18.0989 9.3577 18.0816 8.37822C18.073 7.89322 17.8323 7.41296 17.373 6.96487C16.9137 6.51678 16.245 6.10964 15.405 5.76669C14.5649 5.42373 13.5701 5.15168 12.4772 4.96607C11.3843 4.78046 10.2147 4.68493 9.03531 4.68492V4.68492ZM9.06614 5.47614C7.98933 5.47615 6.92461 5.55122 5.93277 5.69706C4.94094 5.8429 4.04142 6.05665 3.28557 6.32612C2.52971 6.59558 1.93234 6.91548 1.52754 7.26755C1.12274 7.61962 0.918452 7.99696 0.926338 8.37803C0.934136 8.7591 1.15396 9.13645 1.57325 9.48852C1.99254 9.84059 2.60309 10.1605 3.37003 10.43C4.13698 10.6994 5.0453 10.9132 6.04314 11.059C7.04098 11.2049 8.10879 11.2799 9.18561 11.2799C10.2624 11.2799 11.3271 11.2048 12.319 11.059C13.3108 10.9132 14.2103 10.6994 14.9662 10.43C15.722 10.1605 16.3194 9.84058 16.7242 9.48851C17.129 9.13645 17.3333 8.7591 17.3254 8.37803C17.3176 7.99696 17.0978 7.61962 16.6785 7.26755C16.2592 6.91548 15.6487 6.59558 14.8817 6.32611C14.1148 6.05665 13.2064 5.84289 12.2086 5.69705C11.2108 5.55122 10.143 5.47615 9.06614 5.47614V5.47614Z" fill="#32C9D2"/>
</svg>
